<?xml version="1.0" standalone="no"?>
<!DOCTYPE svg PUBLIC "-//W3C//DTD SVG 20010904//EN"
 "http://www.w3.org/TR/2001/REC-SVG-20010904/DTD/svg10.dtd">
<svg version="1.0" xmlns="http://www.w3.org/2000/svg"
 width="260.000000pt" height="260.000000pt" viewBox="0 0 260.000000 260.000000"
 preserveAspectRatio="xMidYMid meet">
<metadata>
Created by potrace 1.11, written by Peter Selinger 2001-2013
</metadata>
<g transform="translate(0.000000,260.000000) scale(0.100000,-0.100000)"
fill="#000000" stroke="none">
<path d="M1200 1850 c-58 -17 -117 -56 -194 -129 -44 -43 -106 -101 -136 -129
-57 -52 -71 -86 -42 -101 33 -17 61 5 171 129 151 171 162 178 286 181 90 2
270 -34 335 -67 14 -7 104 -29 200 -49 96 -20 199 -41 227 -47 59 -12 60 -21
5 -39 -74 -24 -222 -137 -222 -170 0 -4 -21 -11 -47 -15 -70 -10 -82 -12 -93
-19 -5 -3 -31 1 -57 11 -93 31 -242 18 -378 -34 -27 -11 -105 -40 -173 -66
-68 -25 -136 -53 -152 -61 -28 -14 -33 -13 -187 64 -87 43 -205 101 -263 130
-58 28 -143 71 -190 96 -148 78 -174 63 -186 -99 -7 -95 3 -126 41 -126 30 0
37 22 31 105 -7 114 6 113 139 -14 55 -53 82 -68 343 -186 193 -87 282 -133
283 -144 3 -42 21 -147 32 -186 21 -72 93 -148 159 -165 40 -11 144 -9 198 4
186 45 365 286 385 519 4 46 3 45 41 53 l29 5 3 -57 c5 -98 62 -193 139 -229
42 -20 144 -16 227 9 192 58 318 270 320 538 1 58 -2 109 -5 112 -5 6 -162 37
-254 50 -23 4 -50 8 -62 10 -12 3 -43 8 -70 12 -26 3 -57 8 -68 10 -10 2 -37
6 -60 9 -22 3 -51 8 -65 10 -14 3 -41 7 -60 10 -216 36 -339 57 -360 61 -41 9
-243 12 -270 4z m1171 -269 c19 -15 24 -30 27 -89 14 -251 -226 -519 -405
-451 -75 28 -112 99 -113 211 0 175 76 263 280 324 95 29 179 31 211 5z m-752
-237 c28 -36 29 -139 1 -220 -45 -130 -166 -281 -267 -333 -60 -30 -208 -31
-246 0 -37 28 -57 104 -57 211 0 104 16 144 79 201 83 75 309 165 418 166 44
1 55 -3 72 -25z"/>
</g>
</svg>
